<?xml version="1.0" standalone="no"?>
<!DOCTYPE svg PUBLIC "-//W3C//DTD SVG 20010904//EN"
 "http://www.w3.org/TR/2001/REC-SVG-20010904/DTD/svg10.dtd">
<svg version="1.0" xmlns="http://www.w3.org/2000/svg"
 width="700.000000pt" height="700.000000pt" viewBox="0 0 700.000000 700.000000"
 preserveAspectRatio="xMidYMid meet">
<metadata>
Created by potrace 1.14, written by Peter Selinger 2001-2017
</metadata>
<g transform="translate(0.000000,700.000000) scale(0.100000,-0.100000)"
fill="#000000" stroke="none">
<path d="M3187 5184 c-1 -1 -31 -5 -67 -8 -251 -25 -511 -123 -755 -284 -55
-36 -102 -68 -105 -71 -3 -3 -27 -24 -55 -45 -27 -22 -90 -79 -140 -127 -51
-49 -113 -98 -144 -114 -88 -44 -314 -200 -421 -291 -14 -12 -70 -59 -125
-105 -55 -46 -109 -92 -120 -102 -11 -10 -61 -55 -112 -100 -91 -81 -411 -400
-508 -507 -42 -46 -181 -209 -244 -285 -17 -21 -132 -176 -194 -262 -21 -29
-74 -112 -118 -184 -87 -146 -94 -174 -56 -230 32 -48 68 -55 197 -41 343 38
771 231 1155 521 75 56 294 241 319 269 25 29 36 19 26 -24 -5 -21 -12 -70
-15 -111 -7 -69 -9 -74 -34 -79 -89 -19 -165 -81 -199 -164 -21 -51 -22 -62
-19 -446 l2 -394 85 -85 c47 -47 98 -89 115 -94 47 -15 306 -8 331 9 32 20 54
63 54 104 0 27 -8 43 -35 71 l-36 35 -115 0 c-113 0 -116 1 -146 28 l-30 29 1
181 c0 202 8 236 64 285 45 40 128 76 319 140 192 64 277 102 342 152 l47 36
95 -82 c69 -60 93 -86 89 -98 -36 -88 -95 -289 -92 -310 7 -49 19 -62 166
-179 80 -64 148 -119 151 -122 15 -17 338 -268 355 -277 29 -15 314 -10 342 5
56 31 70 125 27 174 -30 33 -62 40 -181 39 -65 -1 -113 3 -113 8 0 5 -8 12
-17 15 -10 3 -31 18 -48 33 -16 16 -48 41 -70 58 -22 16 -51 39 -65 51 -14 12
-38 32 -53 45 l-28 24 72 90 c118 147 216 308 296 490 l22 50 82 2 c70 2 162
12 253 29 13 2 70 17 127 34 57 16 109 30 116 30 12 0 18 -23 28 -100 3 -25 8
-61 10 -80 3 -19 7 -57 10 -85 3 -27 8 -61 10 -75 2 -14 7 -50 10 -80 4 -30 9
-66 10 -80 2 -14 6 -54 10 -90 4 -36 8 -72 10 -80 2 -8 7 -42 11 -75 3 -33 8
-69 10 -80 2 -11 7 -49 10 -85 7 -75 24 -113 61 -137 23 -15 51 -18 183 -18
138 1 159 3 182 20 54 40 62 123 17 171 -25 27 -50 33 -135 36 -65 2 -66 4
-47 58 3 8 22 62 43 120 57 161 94 250 104 250 5 0 83 -55 173 -122 l163 -123
-6 -39 c-7 -49 -42 -120 -83 -166 -43 -49 -51 -78 -35 -125 33 -96 125 -107
205 -23 107 112 161 283 135 433 -3 17 -8 50 -11 74 -9 60 -49 195 -96 324
-21 60 -39 110 -39 112 0 2 37 29 83 61 255 178 438 331 580 484 l59 63 111
29 c62 16 164 42 227 58 l114 28 81 -27 c44 -15 136 -49 204 -75 l124 -48 192
0 c217 0 243 3 276 38 43 46 33 97 -50 269 -111 227 -130 272 -166 375 -84
246 -189 447 -314 602 l-46 57 0 129 c-1 106 -4 134 -18 156 -20 29 -57 48
-98 49 -55 1 -170 -73 -284 -181 -32 -31 -64 -57 -70 -58 -5 -1 -48 -4 -95 -8
-47 -4 -96 -9 -110 -11 -14 -2 -43 -7 -65 -10 -56 -8 -240 -52 -300 -72 -27
-10 -52 -17 -55 -16 -3 0 -27 4 -55 7 -27 3 -59 8 -71 10 -12 2 -45 7 -75 11
-30 3 -110 15 -179 25 -69 11 -147 22 -175 25 -27 3 -59 8 -70 10 -11 2 -42 7
-70 10 -77 9 -86 12 -186 58 -224 104 -490 167 -824 193 -83 6 -402 13 -408 8z
m458 -238 c28 -3 64 -8 80 -11 17 -2 48 -7 70 -10 43 -5 48 -6 170 -31 112
-23 305 -88 394 -134 76 -38 100 -46 176 -55 22 -2 74 -9 115 -15 41 -6 90
-13 109 -16 19 -2 46 -6 60 -9 14 -2 49 -7 76 -10 28 -3 73 -10 100 -15 28 -5
75 -12 105 -16 30 -3 92 -11 137 -18 77 -11 87 -10 160 12 107 33 172 50 213
57 19 3 42 8 50 10 8 2 34 7 57 10 l42 5 -18 -33 c-10 -17 -26 -53 -36 -78
-15 -41 -15 -49 -2 -82 19 -44 57 -70 103 -70 55 0 79 20 126 107 49 91 137
212 197 271 l41 39 0 -149 c0 -138 2 -151 23 -182 34 -51 114 -63 162 -23 10
8 25 -15 68 -100 55 -110 55 -111 34 -124 -12 -7 -55 -32 -94 -55 -40 -23 -84
-52 -98 -64 -72 -63 -35 -179 61 -193 33 -4 49 1 99 31 33 20 76 45 96 56 l37
18 6 -25 c4 -13 36 -86 71 -160 36 -74 65 -139 65 -143 0 -5 -37 -7 -82 -6
-78 2 -106 9 -203 50 -50 21 -197 73 -250 88 -64 18 -88 15 -305 -38 -48 -12
-222 -58 -264 -71 l-49 -14 7 78 c12 146 28 208 82 311 36 68 41 99 22 134
-36 69 -119 85 -178 35 -23 -19 -68 -100 -94 -171 -52 -136 -75 -358 -55 -517
l9 -65 -58 -53 c-60 -56 -258 -212 -379 -300 l-73 -52 -14 28 c-22 42 -51 63
-93 68 -64 8 -123 -41 -125 -104 -1 -17 20 -80 45 -139 61 -143 119 -294 114
-299 -2 -2 -111 78 -243 177 -131 99 -250 189 -264 199 -131 97 -135 101 -132
122 2 12 26 108 52 213 27 104 48 201 46 215 -12 112 -160 141 -209 42 -8 -15
-38 -123 -67 -240 -52 -212 -53 -213 -85 -226 -70 -29 -222 -61 -338 -71 -41
-3 -47 -1 -43 13 2 9 7 31 10 47 4 17 9 41 11 55 14 67 20 146 20 260 0 244
-30 329 -122 343 -37 6 -87 -17 -108 -50 -19 -28 -21 -83 -6 -133 12 -36 9
-309 -3 -365 -71 -330 -175 -552 -375 -802 -36 -46 -69 -83 -72 -83 -3 0 -14
6 -25 14 -19 14 -18 18 34 173 38 117 51 168 46 191 -7 33 -43 70 -135 139
-132 98 -332 310 -418 443 -71 109 -130 238 -146 315 -5 22 -10 47 -12 55 -2
8 -5 43 -8 78 -7 92 -32 129 -100 144 -69 15 -110 -27 -168 -171 -18 -43 -50
-99 -71 -124 l-39 -46 -26 28 c-14 16 -57 64 -96 107 -38 44 -92 102 -118 130
l-48 52 63 52 c35 28 72 59 83 69 142 119 402 291 441 291 7 0 44 32 81 71
145 153 321 283 503 374 159 80 277 116 490 148 32 5 418 -1 485 -7z m-2122
-1360 c92 -104 109 -130 88 -138 -5 -1 -39 -31 -76 -66 l-67 -63 -21 24 c-12
13 -56 62 -98 108 -42 46 -99 111 -128 143 l-51 59 78 73 77 73 50 -52 c28
-29 94 -101 148 -161z m-339 -289 c122 -135 120 -117 26 -187 -45 -33 -85 -60
-90 -60 -7 0 -51 48 -209 223 -31 35 -49 63 -44 70 4 7 37 43 72 80 l66 68 50
-53 c27 -30 86 -93 129 -141z m959 -44 c25 -37 69 -97 97 -132 59 -72 59 -71
-30 -119 -47 -25 -260 -102 -282 -102 -11 0 0 164 17 266 16 88 62 281 71 296
3 4 22 -26 43 -66 21 -41 59 -105 84 -143z m-1281 -264 c53 -59 56 -65 40 -78
-70 -55 -539 -247 -558 -228 -10 10 197 292 305 415 l55 64 50 -54 c28 -30 77
-83 108 -119z m3425 -221 c18 -13 33 -28 33 -35 0 -6 -11 -35 -24 -63 l-25
-53 -6 39 c-3 21 -9 60 -14 87 -4 26 -6 47 -3 47 3 0 21 -10 39 -22z"/>
</g>
</svg>
